<?xml version="1.0" encoding="utf-8"?>
<!-- Generator: Adobe Illustrator 17.0.0, SVG Export Plug-In . SVG Version: 6.00 Build 0)  -->
<!DOCTYPE svg PUBLIC "-//W3C//DTD SVG 1.1//EN" "http://www.w3.org/Graphics/SVG/1.1/DTD/svg11.dtd">
<svg version="1.1" xmlns="http://www.w3.org/2000/svg" xmlns:xlink="http://www.w3.org/1999/xlink" x="0px" y="0px"
	 width="170.466px" height="72px" viewBox="0 0 170.466 72" enable-background="new 0 0 170.466 72" xml:space="preserve">
<g id="fafLeft">
	<polygon fill="#EC008C" points="36,18 36,0 0,4.5 0,13.5 0,22.5 0,36 0,49.5 0,72 18,69.75 18,47.25 36,45 36,31.5 18,33.75 
		18,20.25 	"/>
</g>
<g id="fafRight">
	<linearGradient id="SVGID_1_" gradientUnits="userSpaceOnUse" x1="36" y1="36" x2="72" y2="36">
		<stop  offset="0" style="stop-color:#9F0568"/>
		<stop  offset="0.0154" style="stop-color:#A2066A"/>
		<stop  offset="0.1019" style="stop-color:#AF0D72"/>
		<stop  offset="0.2038" style="stop-color:#B91279"/>
		<stop  offset="0.3302" style="stop-color:#C0157E"/>
		<stop  offset="0.5076" style="stop-color:#C51681"/>
		<stop  offset="1" style="stop-color:#C81782"/>
	</linearGradient>
	<polygon fill="url(#SVGID_1_)" points="36,18 36,0 72,4.5 72,13.5 72,22.5 72,36 72,49.5 72,72 54,69.75 54,47.25 36,45 36,31.5 
		54,33.75 54,20.25 	"/>
</g>
<g id="city">
	<g>
		<path fill="#242426" d="M96.328,60.466h-2.216V72H85.5V37.248h11.18c8.461,0,13.649,3.777,13.649,11.332
			C110.329,56.437,104.739,60.466,96.328,60.466z M96.177,43.746h-2.166V53.97h2.014c3.829,0,5.944-1.662,5.944-5.238
			C101.969,45.408,100.004,43.746,96.177,43.746z"/>
		<path fill="#242426" d="M135.059,72V57.797h-12.037V72h-8.612V37.248h8.612v12.994h12.037V37.248h8.613V72H135.059z"/>
		<path fill="#242426" d="M150.018,72V37.248h8.612v27.298h10.677L170.466,72H150.018z"/>
	</g>
	<g>
	</g>
	<g>
	</g>
	<g>
	</g>
	<g>
	</g>
	<g>
	</g>
	<g>
	</g>
</g>
</svg>
